<?xml version="1.0" encoding="utf-8"?>
<!-- Generator: Adobe Illustrator 21.0.0, SVG Export Plug-In . SVG Version: 6.00 Build 0)  -->
<svg version="1.1" id="Layer_1" xmlns="http://www.w3.org/2000/svg" xmlns:xlink="http://www.w3.org/1999/xlink" x="0px" y="0px"
	 viewBox="0 0 284.7 250.3" style="enable-background:new 0 0 284.7 250.3;" xml:space="preserve">
<style type="text/css">
	.st0{fill:#F15E60;}
	.st1{fill:#D65158;}
</style>
<g>
	<path class="st0" d="M257.7,26.8c-41.4-41.5-82.5-23.3-115.4,6.2c-32.9-29.6-73.7-48-115.4-6.2c-32.6,32.6-32.7,84.9,0,117.2
		c115.1,103.5,115.1,103.3,115.1,103.3s0.2,0.3,115.8-103.3C290.4,111.7,290.3,59.4,257.7,26.8z"/>
	<path class="st1" d="M142.3,33.1L142.3,33.1l-0.1,214.1c1.8-1.6,15.4-13.3,115.5-103.1c32.7-32.4,32.6-84.7,0-117.2
		C216.2-14.6,175.2,3.5,142.3,33.1z"/>
</g>
</svg>
